# Blender v2.79 (sub 0) OBJ File: 'director.blend'
# www.blender.org
mtllib controller.mtl
o Cube_Cube.001
v -0.268150 0.143257 0.231544
v -0.268150 0.143257 -0.304756
v -0.546441 -0.551642 0.509835
v -0.546441 -0.551642 -0.583047
v 0.268150 0.143257 0.231544
v 0.268150 0.143257 -0.304756
v 0.546441 -0.551642 0.509835
v 0.546441 -0.551642 -0.583047
v -0.594128 -0.411232 0.557522
v -0.594128 -0.411232 -0.630734
v 0.594128 -0.411232 -0.630734
v 0.594128 -0.411232 0.557522
vt 0.176817 0.959868
vt 0.176817 0.459869
vt 0.239214 0.479934
vt 0.239214 0.939803
vt 0.000000 0.459868
vt 0.000000 0.000000
vt 0.459869 0.000000
vt 0.459868 0.459869
vt 0.699082 0.020066
vt 0.699083 0.479934
vt 0.636685 0.500000
vt 0.636685 0.000000
vt 0.699083 0.725667
vt 0.699083 0.500000
vt 0.924749 0.500000
vt 0.924749 0.725667
vt 0.699082 0.520066
vt 0.699082 0.979934
vt 0.636685 1.000000
vt 0.636685 0.500000
vt 0.938296 0.020066
vt 0.938296 0.479934
vt 0.875899 0.500000
vt 0.875899 0.000000
vt 0.000000 0.822702
vt 0.000000 0.597035
vt 0.459869 0.362834
vt 0.459869 0.137167
vt 0.459869 0.862833
vt 0.459869 0.637167
vt 0.699083 0.362833
vt 0.699083 0.137167
vn -0.9469 -0.3216 -0.0000
vn 0.0000 -1.0000 0.0000
vn 0.9469 -0.3216 -0.0000
vn 0.0000 1.0000 0.0000
vn 0.0000 -0.3216 0.9469
vn 0.0000 -0.3216 -0.9469
vn -0.8621 0.5068 0.0000
vn 0.8621 0.5068 0.0000
vn 0.0000 0.5068 0.8621
vn 0.0000 0.5068 -0.8621
usemtl Material
s off
f 9/1/1 10/2/1 4/3/1 3/4/1
f 3/5/2 4/6/2 8/7/2 7/8/2
f 7/9/3 8/10/3 11/11/3 12/12/3
f 5/13/4 6/14/4 2/15/4 1/16/4
f 3/17/5 7/18/5 12/19/5 9/20/5
f 8/21/6 4/22/6 10/23/6 11/24/6
f 1/25/7 2/26/7 10/2/7 9/1/7
f 6/27/8 5/28/8 12/12/8 11/11/8
f 5/29/9 1/30/9 9/20/9 12/19/9
f 2/31/10 6/32/10 11/24/10 10/23/10
